<?xml version="1.0" encoding="UTF-8" standalone="no"?><!DOCTYPE svg PUBLIC "-//W3C//DTD SVG 1.1//EN" "http://www.w3.org/Graphics/SVG/1.1/DTD/svg11.dtd"><!-- Generated by graphviz version 2.40.1 (20161225.0304)
 --><!-- Title: injector Pages: 1 --><svg xmlns="http://www.w3.org/2000/svg" xmlns:xlink="http://www.w3.org/1999/xlink" width="924pt" height="716pt" viewBox="0.00 0.00 923.85 716.00">
<g id="graph0" class="graph" transform="scale(1 1) rotate(0) translate(4 712)">
<title>injector</title>
<polygon fill="#ffffff" stroke="transparent" points="-4,4 -4,-712 919.8521,-712 919.8521,4 -4,4"/>
<!-- x0 -->
<g id="node1" class="node">
<title>x0</title>
<polygon fill="none" stroke="#000000" stroke-dasharray="5,2" points="477.5,-124 364.5,-124 364.5,-88 477.5,-88 477.5,-124"/>
<polygon fill="#ffffff" stroke="transparent" points="366,-93 366,-119 477,-119 477,-93 366,-93"/>
<text text-anchor="start" x="371" y="-101.4" font-family="Times,serif" font-size="14.00" fill="#000000">SimulationEngine</text>
</g>
<!-- x23 -->
<g id="node2" class="node">
<title>x23</title>
<polygon fill="none" stroke="#000000" points="488,-52 354,-52 354,0 488,0 488,-52"/>
<polygon fill="#000000" stroke="transparent" points="355,-26 355,-52 487,-52 487,-26 355,-26"/>
<text text-anchor="start" x="360" y="-34.4" font-family="Times,serif" font-size="14.00" fill="#ffffff">SimulationEngineSSJ</text>
<text text-anchor="start" x="360" y="-8.4" font-family="Times,serif" font-size="14.00" fill="#000000">&lt;init&gt;</text>
</g>
<!-- x0&#45;&gt;x23 -->
<g id="edge1" class="edge">
<title>x0-&gt;x23</title>
<path fill="none" stroke="#000000" stroke-dasharray="5,2" d="M421,-87.8468C421,-80.2921 421,-71.2376 421,-62.4174"/>
<polygon fill="none" stroke="#000000" points="424.5001,-62.2746 421,-52.2746 417.5001,-62.2747 424.5001,-62.2746"/>
</g>
<!-- x10 -->
<g id="node3" class="node">
<title>x10</title>
<polygon fill="none" stroke="#000000" stroke-dasharray="5,2" points="437.5,-364 330.5,-364 330.5,-328 437.5,-328 437.5,-364"/>
<polygon fill="#ffffff" stroke="transparent" points="332,-333 332,-359 437,-359 437,-333 332,-333"/>
<text text-anchor="start" x="337" y="-341.4" font-family="Times,serif" font-size="14.00" fill="#000000">SimuComConfig</text>
</g>
<!-- x11 -->
<g id="node12" class="node">
<title>x11</title>
<polygon fill="none" stroke="#000000" points="497,-284 325,-284 325,-248 497,-248 497,-284"/>
<polygon fill="#aaaaaa" stroke="transparent" points="326,-249 326,-283 496,-283 496,-249 326,-249"/>
<text text-anchor="start" x="331" y="-270" font-family="Times,serif" font-size="10.00" fill="#ffffff">WorkflowConfigurationModule.java:19</text>
<text text-anchor="start" x="331" y="-256.4" font-family="Times,serif" font-size="14.00" fill="#ffffff">SimuComConfigProvider</text>
</g>
<!-- x10&#45;&gt;x11 -->
<g id="edge11" class="edge">
<title>x10-&gt;x11</title>
<path fill="none" stroke="#000000" stroke-dasharray="5,2" d="M390.1267,-327.8468C392.6122,-320.4822 395.5788,-311.6925 398.4842,-303.0838"/>
<polygon fill="none" stroke="#000000" points="405.0159,-294.6756 404.8975,-284.0814 398.3835,-292.4371 405.0159,-294.6756"/>
<polygon fill="none" stroke="#000000" points="401.8181,-304.1505 401.6997,-293.5563 395.1857,-301.912 401.8181,-304.1505"/>
</g>
<!-- x22 -->
<g id="node4" class="node">
<title>x22</title>
<polygon fill="none" stroke="#000000" stroke-dasharray="5,2" points="153.5,-284 64.5,-284 64.5,-248 153.5,-248 153.5,-284"/>
<polygon fill="#ffffff" stroke="transparent" points="66,-253 66,-279 153,-279 153,-253 66,-253"/>
<text text-anchor="start" x="71" y="-261.4" font-family="Times,serif" font-size="14.00" fill="#000000">SystemDriver</text>
</g>
<!-- x24 -->
<g id="node26" class="node">
<title>x24</title>
<polygon fill="none" stroke="#000000" points="180,-212 38,-212 38,-160 180,-160 180,-212"/>
<polygon fill="#000000" stroke="transparent" points="39,-186 39,-212 179,-212 179,-186 39,-186"/>
<text text-anchor="start" x="44" y="-194.4" font-family="Times,serif" font-size="14.00" fill="#ffffff">SlingshotSystemDriver</text>
<text text-anchor="start" x="44" y="-168.4" font-family="Times,serif" font-size="14.00" fill="#000000">&lt;init&gt;</text>
</g>
<!-- x22&#45;&gt;x24 -->
<g id="edge21" class="edge">
<title>x22-&gt;x24</title>
<path fill="none" stroke="#000000" stroke-dasharray="5,2" d="M109,-247.8468C109,-240.2921 109,-231.2376 109,-222.4174"/>
<polygon fill="none" stroke="#000000" points="112.5001,-222.2746 109,-212.2746 105.5001,-222.2747 112.5001,-222.2746"/>
</g>
<!-- x14 -->
<g id="node5" class="node">
<title>x14</title>
<polygon fill="none" stroke="#000000" points="898.5,-636 731.5,-636 731.5,-584 898.5,-584 898.5,-636"/>
<polygon fill="#000000" stroke="transparent" points="733,-610 733,-636 898,-636 898,-610 733,-610"/>
<text text-anchor="start" x="738" y="-618.4" font-family="Times,serif" font-size="14.00" fill="#ffffff">MonitorRepositoryProvider</text>
<text text-anchor="start" x="738" y="-592.4" font-family="Times,serif" font-size="14.00" fill="#000000">&lt;init&gt;</text>
</g>
<!-- x1 -->
<g id="node16" class="node">
<title>x1</title>
<polygon fill="none" stroke="#000000" points="816.5,-548 609.5,-548 609.5,-496 816.5,-496 816.5,-548"/>
<polygon fill="#000000" stroke="transparent" points="611,-522 611,-548 816,-548 816,-522 611,-522"/>
<text text-anchor="start" x="616" y="-530.4" font-family="Times,serif" font-size="14.00" fill="#ffffff">PCMResourceSetPartitionProvider</text>
<text text-anchor="start" x="616" y="-504.4" font-family="Times,serif" font-size="14.00" fill="#000000">&lt;init&gt;</text>
</g>
<!-- x14&#45;&gt;x1 -->
<g id="edge13" class="edge">
<title>x14:e-&gt;x1</title>
<path fill="none" stroke="#000000" d="M898,-597C949.0352,-597 880.1432,-572.1836 812.4077,-551.1009"/>
<polygon fill="#000000" stroke="#000000" points="813.0243,-547.6283 802.4367,-548.0209 810.9582,-554.3165 813.0243,-547.6283"/>
</g>
<!-- x25 -->
<g id="node6" class="node">
<title>x25</title>
<polygon fill="none" stroke="#000000" stroke-dasharray="5,2" points="306.5,-284 197.5,-284 197.5,-248 306.5,-248 306.5,-284"/>
<polygon fill="#ffffff" stroke="transparent" points="199,-253 199,-279 306,-279 306,-253 199,-253"/>
<text text-anchor="start" x="204" y="-261.4" font-family="Times,serif" font-size="14.00" fill="#000000">SimulationDriver</text>
</g>
<!-- x8 -->
<g id="node24" class="node">
<title>x8</title>
<polygon fill="none" stroke="#000000" points="422,-212 260,-212 260,-160 422,-160 422,-212"/>
<polygon fill="#000000" stroke="transparent" points="261,-186 261,-212 421,-212 421,-186 261,-186"/>
<text text-anchor="start" x="266" y="-194.4" font-family="Times,serif" font-size="14.00" fill="#ffffff">SlingshotSimulationDriver</text>
<text text-anchor="start" x="266" y="-168.4" font-family="Times,serif" font-size="14.00" fill="#000000">&lt;init&gt;</text>
</g>
<!-- x25&#45;&gt;x8 -->
<g id="edge24" class="edge">
<title>x25-&gt;x8</title>
<path fill="none" stroke="#000000" stroke-dasharray="5,2" d="M272.1955,-247.8468C281.6963,-239.3067 293.3293,-228.8501 304.3078,-218.9817"/>
<polygon fill="none" stroke="#000000" points="306.6721,-221.5627 311.7695,-212.2746 301.9926,-216.3567 306.6721,-221.5627"/>
</g>
<!-- x12 -->
<g id="node7" class="node">
<title>x12</title>
<polygon fill="none" stroke="#000000" stroke-dasharray="5,2" points="303.5,-124 248.5,-124 248.5,-88 303.5,-88 303.5,-124"/>
<polygon fill="#ffffff" stroke="transparent" points="250,-93 250,-119 303,-119 303,-93 250,-93"/>
<text text-anchor="start" x="255" y="-101.4" font-family="Times,serif" font-size="14.00" fill="#000000">Injector</text>
</g>
<!-- x13 -->
<g id="node20" class="node">
<title>x13</title>
<polygon fill="none" stroke="#000000" points="335.5,-44 216.5,-44 216.5,-8 335.5,-8 335.5,-44"/>
<polygon fill="#aaaaaa" stroke="transparent" points="218,-9 218,-43 335,-43 335,-9 218,-9"/>
<text text-anchor="start" x="223" y="-30" font-family="Times,serif" font-size="10.00" fill="#ffffff">[unknown source]</text>
<text text-anchor="start" x="223" y="-16.4" font-family="Times,serif" font-size="14.00" fill="#ffffff">Provider&lt;Injector&gt;</text>
</g>
<!-- x12&#45;&gt;x13 -->
<g id="edge12" class="edge">
<title>x12-&gt;x13</title>
<path fill="none" stroke="#000000" stroke-dasharray="5,2" d="M276,-87.8468C276,-80.7891 276,-72.4225 276,-64.1607"/>
<polygon fill="none" stroke="#000000" points="279.5,-54.0814 276,-44.0814 272.5,-54.0814 279.5,-54.0814"/>
<polygon fill="none" stroke="#000000" points="279.5001,-64.0814 276,-54.0814 272.5001,-64.0814 279.5001,-64.0814"/>
</g>
<!-- x9 -->
<g id="node8" class="node">
<title>x9</title>
<polygon fill="none" stroke="#000000" stroke-dasharray="5,2" points="874.5,-708 755.5,-708 755.5,-672 874.5,-672 874.5,-708"/>
<polygon fill="#ffffff" stroke="transparent" points="757,-677 757,-703 874,-703 874,-677 757,-677"/>
<text text-anchor="start" x="762" y="-685.4" font-family="Times,serif" font-size="14.00" fill="#000000">MonitorRepository</text>
</g>
<!-- x9&#45;&gt;x14 -->
<g id="edge10" class="edge">
<title>x9-&gt;x14</title>
<path fill="none" stroke="#000000" stroke-dasharray="5,2" d="M815,-671.8468C815,-667.1661 815,-661.9098 815,-656.4902"/>
<polygon fill="none" stroke="#000000" points="818.5,-646.2746 815,-636.2746 811.5,-646.2746 818.5,-646.2746"/>
<polygon fill="none" stroke="#000000" points="818.5001,-656.2746 815,-646.2746 811.5001,-656.2746 818.5001,-656.2746"/>
</g>
<!-- x20 -->
<g id="node9" class="node">
<title>x20</title>
<polygon fill="none" stroke="#000000" stroke-dasharray="5,2" points="716.5,-124 499.5,-124 499.5,-88 716.5,-88 716.5,-124"/>
<polygon fill="#ffffff" stroke="transparent" points="501,-89 501,-123 716,-123 716,-89 501,-89"/>
<text text-anchor="start" x="506" y="-110" font-family="Times,serif" font-size="10.00" fill="#000000">@SimulationBehaviorExtensions</text>
<text text-anchor="start" x="506" y="-96.4" font-family="Times,serif" font-size="14.00" fill="#000000">List&lt;SimulationBehaviorContainer&gt;</text>
</g>
<!-- x21 -->
<g id="node14" class="node">
<title>x21</title>
<polygon fill="none" stroke="#000000" points="719.5,-44 506.5,-44 506.5,-8 719.5,-8 719.5,-44"/>
<polygon fill="#aaaaaa" stroke="transparent" points="508,-9 508,-43 719,-43 719,-9 508,-9"/>
<text text-anchor="start" x="513" y="-30" font-family="Times,serif" font-size="10.00" fill="#ffffff">SlingshotSystem.java:72</text>
<text text-anchor="start" x="513" y="-16.4" font-family="Times,serif" font-size="14.00" fill="#ffffff">#getSimulationBehaviorContainer()</text>
</g>
<!-- x20&#45;&gt;x21 -->
<g id="edge20" class="edge">
<title>x20-&gt;x21</title>
<path fill="none" stroke="#000000" stroke-dasharray="5,2" d="M609.1346,-87.8468C609.5757,-80.7891 610.0986,-72.4225 610.615,-64.1607"/>
<polygon fill="none" stroke="#000000" points="614.7393,-54.2803 611.8699,-44.0814 607.7529,-53.8436 614.7393,-54.2803"/>
<polygon fill="none" stroke="#000000" points="614.1154,-64.2608 611.2461,-54.0619 607.1291,-63.8241 614.1154,-64.2608"/>
</g>
<!-- x16 -->
<g id="node10" class="node">
<title>x16</title>
<polygon fill="none" stroke="#000000" points="471.5,-460 310.5,-460 310.5,-408 471.5,-408 471.5,-460"/>
<polygon fill="#000000" stroke="transparent" points="312,-434 312,-460 471,-460 471,-434 312,-434"/>
<text text-anchor="start" x="317" y="-442.4" font-family="Times,serif" font-size="14.00" fill="#ffffff">CalculatorFactoryProvider</text>
<text text-anchor="start" x="317" y="-416.4" font-family="Times,serif" font-size="14.00" fill="#000000">&lt;init&gt;</text>
</g>
<!-- x16&#45;&gt;x10 -->
<g id="edge15" class="edge">
<title>x16:e-&gt;x10</title>
<path fill="none" stroke="#000000" d="M471,-421C502.988,-421 460.7323,-391.5542 424.7143,-369.5632"/>
<polygon fill="#000000" stroke="#000000" points="426.1121,-366.3192 415.7406,-364.1554 422.499,-372.3147 426.1121,-366.3192"/>
</g>
<!-- x17 -->
<g id="node13" class="node">
<title>x17</title>
<polygon fill="none" stroke="#000000" points="662,-372 456,-372 456,-320 662,-320 662,-372"/>
<polygon fill="#000000" stroke="transparent" points="457,-346 457,-372 661,-372 661,-346 457,-346"/>
<text text-anchor="start" x="462" y="-354.4" font-family="Times,serif" font-size="14.00" fill="#ffffff">EventBasedMeasurementObserver</text>
<text text-anchor="start" x="462" y="-328.4" font-family="Times,serif" font-size="14.00" fill="#000000">&lt;init&gt;</text>
</g>
<!-- x16&#45;&gt;x17 -->
<g id="edge16" class="edge">
<title>x16:e-&gt;x17</title>
<path fill="none" stroke="#000000" d="M471,-421C498.17,-421 521.2092,-400.0344 536.8905,-380.2729"/>
<polygon fill="#000000" stroke="#000000" points="539.7262,-382.3255 542.9446,-372.2314 534.1338,-378.1153 539.7262,-382.3255"/>
</g>
<!-- x5 -->
<g id="node11" class="node">
<title>x5</title>
<polygon fill="none" stroke="#000000" stroke-dasharray="5,2" points="522.5,-708 451.5,-708 451.5,-672 522.5,-672 522.5,-708"/>
<polygon fill="#ffffff" stroke="transparent" points="453,-677 453,-703 522,-703 522,-677 453,-677"/>
<text text-anchor="start" x="458" y="-685.4" font-family="Times,serif" font-size="14.00" fill="#000000">Allocation</text>
</g>
<!-- x6 -->
<g id="node25" class="node">
<title>x6</title>
<polygon fill="none" stroke="#000000" points="564.5,-636 409.5,-636 409.5,-584 564.5,-584 564.5,-636"/>
<polygon fill="#000000" stroke="transparent" points="411,-610 411,-636 564,-636 564,-610 411,-610"/>
<text text-anchor="start" x="416" y="-618.4" font-family="Times,serif" font-size="14.00" fill="#ffffff">AllocationModelProvider</text>
<text text-anchor="start" x="416" y="-592.4" font-family="Times,serif" font-size="14.00" fill="#000000">&lt;init&gt;</text>
</g>
<!-- x5&#45;&gt;x6 -->
<g id="edge4" class="edge">
<title>x5-&gt;x6</title>
<path fill="none" stroke="#000000" stroke-dasharray="5,2" d="M487,-671.8468C487,-667.1661 487,-661.9098 487,-656.4902"/>
<polygon fill="none" stroke="#000000" points="490.5,-646.2746 487,-636.2746 483.5,-646.2746 490.5,-646.2746"/>
<polygon fill="none" stroke="#000000" points="490.5001,-656.2746 487,-646.2746 483.5001,-656.2746 490.5001,-656.2746"/>
</g>
<!-- x7 -->
<g id="node23" class="node">
<title>x7</title>
<polygon fill="none" stroke="#000000" stroke-dasharray="5,2" points="703,-284 567,-284 567,-248 703,-248 703,-284"/>
<polygon fill="#ffffff" stroke="transparent" points="568,-253 568,-279 702,-279 702,-253 568,-253"/>
<text text-anchor="start" x="573" y="-261.4" font-family="Times,serif" font-size="14.00" fill="#000000">SimulationScheduling</text>
</g>
<!-- x17&#45;&gt;x7 -->
<g id="edge17" class="edge">
<title>x17:e-&gt;x7</title>
<path fill="none" stroke="#000000" d="M661,-333C679.1775,-333 668.2452,-311.301 655.4483,-292.6005"/>
<polygon fill="#000000" stroke="#000000" points="658.1908,-290.4181 649.5353,-284.308 652.4914,-294.4822 658.1908,-290.4181"/>
</g>
<!-- x19 -->
<g id="node15" class="node">
<title>x19</title>
<polygon fill="none" stroke="#000000" points="391.5,-636 190.5,-636 190.5,-584 391.5,-584 391.5,-636"/>
<polygon fill="#000000" stroke="transparent" points="192,-610 192,-636 391,-636 391,-610 192,-610"/>
<text text-anchor="start" x="197" y="-618.4" font-family="Times,serif" font-size="14.00" fill="#ffffff">ProbeFrameworkContextProvider</text>
<text text-anchor="start" x="197" y="-592.4" font-family="Times,serif" font-size="14.00" fill="#000000">&lt;init&gt;</text>
</g>
<!-- x15 -->
<g id="node18" class="node">
<title>x15</title>
<polygon fill="none" stroke="#000000" stroke-dasharray="5,2" points="472,-540 310,-540 310,-504 472,-504 472,-540"/>
<polygon fill="#ffffff" stroke="transparent" points="311,-509 311,-535 471,-535 471,-509 311,-509"/>
<text text-anchor="start" x="316" y="-517.4" font-family="Times,serif" font-size="14.00" fill="#000000">IGenericCalculatorFactory</text>
</g>
<!-- x19&#45;&gt;x15 -->
<g id="edge19" class="edge">
<title>x19:e-&gt;x15</title>
<path fill="none" stroke="#000000" d="M391,-597C400.7351,-597 399.0975,-571.4115 396.0516,-550.1273"/>
<polygon fill="#000000" stroke="#000000" points="399.4948,-549.4919 394.4868,-540.1554 392.5794,-550.5771 399.4948,-549.4919"/>
</g>
<!-- x18 -->
<g id="node17" class="node">
<title>x18</title>
<polygon fill="none" stroke="#000000" stroke-dasharray="5,2" points="367.5,-708 214.5,-708 214.5,-672 367.5,-672 367.5,-708"/>
<polygon fill="#ffffff" stroke="transparent" points="216,-677 216,-703 367,-703 367,-677 216,-677"/>
<text text-anchor="start" x="221" y="-685.4" font-family="Times,serif" font-size="14.00" fill="#000000">ProbeFrameworkContext</text>
</g>
<!-- x18&#45;&gt;x19 -->
<g id="edge18" class="edge">
<title>x18-&gt;x19</title>
<path fill="none" stroke="#000000" stroke-dasharray="5,2" d="M291,-671.8468C291,-667.1661 291,-661.9098 291,-656.4902"/>
<polygon fill="none" stroke="#000000" points="294.5,-646.2746 291,-636.2746 287.5,-646.2746 294.5,-646.2746"/>
<polygon fill="none" stroke="#000000" points="294.5001,-656.2746 291,-646.2746 287.5001,-656.2746 294.5001,-656.2746"/>
</g>
<!-- x15&#45;&gt;x16 -->
<g id="edge14" class="edge">
<title>x15-&gt;x16</title>
<path fill="none" stroke="#000000" stroke-dasharray="5,2" d="M391,-503.7663C391,-496.8835 391,-488.7018 391,-480.4058"/>
<polygon fill="none" stroke="#000000" points="394.5,-470.2223 391,-460.2223 387.5,-470.2223 394.5,-470.2223"/>
<polygon fill="none" stroke="#000000" points="394.5001,-480.2223 391,-470.2223 387.5001,-480.2223 394.5001,-480.2223"/>
</g>
<!-- x4 -->
<g id="node19" class="node">
<title>x4</title>
<polygon fill="none" stroke="#000000" stroke-dasharray="5,2" points="689.5,-708 606.5,-708 606.5,-672 689.5,-672 689.5,-708"/>
<polygon fill="#ffffff" stroke="transparent" points="608,-677 608,-703 689,-703 689,-677 608,-677"/>
<text text-anchor="start" x="613" y="-685.4" font-family="Times,serif" font-size="14.00" fill="#000000">UsageModel</text>
</g>
<!-- x26 -->
<g id="node27" class="node">
<title>x26</title>
<polygon fill="none" stroke="#000000" points="713.5,-636 582.5,-636 582.5,-584 713.5,-584 713.5,-636"/>
<polygon fill="#000000" stroke="transparent" points="584,-610 584,-636 713,-636 713,-610 584,-610"/>
<text text-anchor="start" x="589" y="-618.4" font-family="Times,serif" font-size="14.00" fill="#ffffff">UsageModelProvider</text>
<text text-anchor="start" x="589" y="-592.4" font-family="Times,serif" font-size="14.00" fill="#000000">&lt;init&gt;</text>
</g>
<!-- x4&#45;&gt;x26 -->
<g id="edge3" class="edge">
<title>x4-&gt;x26</title>
<path fill="none" stroke="#000000" stroke-dasharray="5,2" d="M648,-671.8468C648,-667.1661 648,-661.9098 648,-656.4902"/>
<polygon fill="none" stroke="#000000" points="651.5,-646.2746 648,-636.2746 644.5,-646.2746 651.5,-646.2746"/>
<polygon fill="none" stroke="#000000" points="651.5001,-656.2746 648,-646.2746 644.5001,-656.2746 651.5001,-656.2746"/>
</g>
<!-- x2 -->
<g id="node21" class="node">
<title>x2</title>
<polygon fill="none" stroke="#000000" stroke-dasharray="5,2" points="214.5,-124 17.5,-124 17.5,-88 214.5,-88 214.5,-124"/>
<polygon fill="#ffffff" stroke="transparent" points="19,-89 19,-123 214,-123 214,-89 19,-89"/>
<text text-anchor="start" x="24" y="-110" font-family="Times,serif" font-size="10.00" fill="#000000">@SystemBehaviorExtensions</text>
<text text-anchor="start" x="24" y="-96.4" font-family="Times,serif" font-size="14.00" fill="#000000">List&lt;SystemBehaviorContainer&gt;</text>
</g>
<!-- x3 -->
<g id="node22" class="node">
<title>x3</title>
<polygon fill="none" stroke="#000000" points="198,-44 0,-44 0,-8 198,-8 198,-44"/>
<polygon fill="#aaaaaa" stroke="transparent" points="1,-9 1,-43 197,-43 197,-9 1,-9"/>
<text text-anchor="start" x="6" y="-30" font-family="Times,serif" font-size="10.00" fill="#ffffff">SlingshotSystem.java:65</text>
<text text-anchor="start" x="6" y="-16.4" font-family="Times,serif" font-size="14.00" fill="#ffffff">#getSystemBehaviorContainers()</text>
</g>
<!-- x2&#45;&gt;x3 -->
<g id="edge2" class="edge">
<title>x2-&gt;x3</title>
<path fill="none" stroke="#000000" stroke-dasharray="5,2" d="M112.1424,-87.8468C110.6209,-80.6868 108.8132,-72.1797 107.0328,-63.8016"/>
<polygon fill="none" stroke="#000000" points="108.3445,-53.1355 102.8423,-44.0814 101.4974,-54.5905 108.3445,-53.1355"/>
<polygon fill="none" stroke="#000000" points="110.4231,-62.9171 104.9209,-53.863 103.576,-64.3721 110.4231,-62.9171"/>
</g>
<!-- x7&#45;&gt;x8 -->
<g id="edge6" class="edge">
<title>x7-&gt;x8</title>
<path fill="none" stroke="#000000" stroke-dasharray="5,2" d="M568.6541,-247.9467C528.2677,-236.9572 476.1176,-222.7667 431.9225,-210.7408"/>
<polygon fill="none" stroke="#000000" points="432.6082,-207.3002 422.0401,-208.0517 430.7703,-214.0546 432.6082,-207.3002"/>
</g>
<!-- x8&#45;&gt;x0 -->
<g id="edge7" class="edge">
<title>x8:e-&gt;x0</title>
<path fill="none" stroke="#000000" d="M421,-173C437.4883,-173 435.7171,-152.4581 430.8521,-134.1228"/>
<polygon fill="#000000" stroke="#000000" points="434.1375,-132.892 427.9274,-124.308 427.429,-134.8912 434.1375,-132.892"/>
</g>
<!-- x8&#45;&gt;x12 -->
<g id="edge8" class="edge">
<title>x8:e-&gt;x12</title>
<path fill="none" stroke="#000000" d="M421,-173C472.7737,-173 371.9099,-137.3647 313.5068,-118.0714"/>
<polygon fill="#000000" stroke="#000000" points="314.4277,-114.69 303.8349,-114.8971 312.2448,-121.3409 314.4277,-114.69"/>
</g>
<!-- x8&#45;&gt;x20 -->
<g id="edge9" class="edge">
<title>x8:e-&gt;x20</title>
<path fill="none" stroke="#000000" d="M421,-173C474.5694,-173 531.9793,-148.3317 568.8456,-128.9317"/>
<polygon fill="#000000" stroke="#000000" points="570.6155,-131.9538 577.7609,-124.1312 567.2968,-125.7905 570.6155,-131.9538"/>
</g>
<!-- x6&#45;&gt;x1 -->
<g id="edge5" class="edge">
<title>x6:e-&gt;x1</title>
<path fill="none" stroke="#000000" d="M564,-597C571.0273,-597 567.585,-588.479 573,-584 588.1753,-571.4479 606.2923,-560.9683 624.3775,-552.4129"/>
<polygon fill="#000000" stroke="#000000" points="626.1667,-555.444 633.8163,-548.1136 623.265,-549.0737 626.1667,-555.444"/>
</g>
<!-- x24&#45;&gt;x12 -->
<g id="edge22" class="edge">
<title>x24:e-&gt;x12</title>
<path fill="none" stroke="#000000" d="M179,-173C209.2208,-173 236.8497,-150.7106 254.8228,-131.844"/>
<polygon fill="#000000" stroke="#000000" points="257.5396,-134.0589 261.6834,-124.308 252.3633,-129.3466 257.5396,-134.0589"/>
</g>
<!-- x24&#45;&gt;x2 -->
<g id="edge23" class="edge">
<title>x24:e-&gt;x2</title>
<path fill="none" stroke="#000000" d="M179,-173C203.2043,-173 176.6514,-149.506 150.967,-130.3425"/>
<polygon fill="#000000" stroke="#000000" points="152.8603,-127.3909 142.7239,-124.308 148.7254,-133.0392 152.8603,-127.3909"/>
</g>
<!-- x26&#45;&gt;x1 -->
<g id="edge25" class="edge">
<title>x26:e-&gt;x1</title>
<path fill="none" stroke="#000000" d="M713,-597C721.4986,-597 721.3301,-577.4988 719.1236,-558.3843"/>
<polygon fill="#000000" stroke="#000000" points="722.5613,-557.6834 717.775,-548.2314 715.6223,-558.6052 722.5613,-557.6834"/>
</g>
</g>
</svg>